<mxfile host="app.diagrams.net" modified="2023-11-17T17:01:27.233Z" agent="Mozilla/5.0 (Macintosh; Intel Mac OS X 10.15; rv:109.0) Gecko/20100101 Firefox/119.0" etag="HaMemU6to_hvWLW664j7" version="22.1.3" type="github">
  <diagram name="Page-1" id="zhyeufyVCGhg2TKN5k-u">
    <mxGraphModel dx="1434" dy="763" grid="1" gridSize="10" guides="1" tooltips="1" connect="1" arrows="1" fold="1" page="1" pageScale="1" pageWidth="1100" pageHeight="850" math="0" shadow="0">
      <root>
        <mxCell id="0" />
        <mxCell id="1" parent="0" />
        <mxCell id="CQN8vnpKiC71kC9qJXYh-11" value="" style="edgeStyle=orthogonalEdgeStyle;rounded=0;orthogonalLoop=1;jettySize=auto;html=1;" edge="1" parent="1" source="CQN8vnpKiC71kC9qJXYh-1" target="CQN8vnpKiC71kC9qJXYh-2">
          <mxGeometry relative="1" as="geometry">
            <Array as="points">
              <mxPoint x="108" y="270" />
              <mxPoint x="110" y="270" />
            </Array>
          </mxGeometry>
        </mxCell>
        <mxCell id="CQN8vnpKiC71kC9qJXYh-1" value="" style="image;aspect=fixed;perimeter=ellipsePerimeter;html=1;align=center;shadow=0;dashed=0;spacingTop=3;image=img/lib/active_directory/internet_cloud.svg;" vertex="1" parent="1">
          <mxGeometry x="60" y="180" width="95.24" height="60" as="geometry" />
        </mxCell>
        <mxCell id="CQN8vnpKiC71kC9qJXYh-12" style="edgeStyle=orthogonalEdgeStyle;rounded=0;orthogonalLoop=1;jettySize=auto;html=1;" edge="1" parent="1" source="CQN8vnpKiC71kC9qJXYh-2" target="CQN8vnpKiC71kC9qJXYh-4">
          <mxGeometry relative="1" as="geometry" />
        </mxCell>
        <mxCell id="CQN8vnpKiC71kC9qJXYh-2" value="" style="image;html=1;image=img/lib/clip_art/networking/Modem_128x128.png" vertex="1" parent="1">
          <mxGeometry x="60" y="300" width="80" height="80" as="geometry" />
        </mxCell>
        <mxCell id="CQN8vnpKiC71kC9qJXYh-13" style="edgeStyle=orthogonalEdgeStyle;rounded=0;orthogonalLoop=1;jettySize=auto;html=1;" edge="1" parent="1" source="CQN8vnpKiC71kC9qJXYh-4">
          <mxGeometry relative="1" as="geometry">
            <mxPoint x="210" y="490" as="targetPoint" />
          </mxGeometry>
        </mxCell>
        <mxCell id="CQN8vnpKiC71kC9qJXYh-17" value="" style="edgeStyle=orthogonalEdgeStyle;rounded=0;orthogonalLoop=1;jettySize=auto;html=1;exitX=0;exitY=1;exitDx=0;exitDy=0;" edge="1" parent="1" source="CQN8vnpKiC71kC9qJXYh-6" target="CQN8vnpKiC71kC9qJXYh-16">
          <mxGeometry relative="1" as="geometry">
            <mxPoint x="130" y="540" as="sourcePoint" />
          </mxGeometry>
        </mxCell>
        <mxCell id="CQN8vnpKiC71kC9qJXYh-4" value="" style="image;html=1;image=img/lib/clip_art/networking/Firewall-page1_128x128.png" vertex="1" parent="1">
          <mxGeometry x="60" y="450" width="80" height="80" as="geometry" />
        </mxCell>
        <mxCell id="CQN8vnpKiC71kC9qJXYh-15" value="" style="edgeStyle=orthogonalEdgeStyle;rounded=0;orthogonalLoop=1;jettySize=auto;html=1;" edge="1" parent="1" source="CQN8vnpKiC71kC9qJXYh-5" target="CQN8vnpKiC71kC9qJXYh-8">
          <mxGeometry relative="1" as="geometry" />
        </mxCell>
        <mxCell id="CQN8vnpKiC71kC9qJXYh-5" value="" style="image;html=1;image=img/lib/clip_art/networking/Switch_128x128.png" vertex="1" parent="1">
          <mxGeometry x="220" y="300" width="80" height="80" as="geometry" />
        </mxCell>
        <mxCell id="CQN8vnpKiC71kC9qJXYh-6" value="" style="image;html=1;image=img/lib/clip_art/networking/Switch_128x128.png" vertex="1" parent="1">
          <mxGeometry x="220" y="450" width="80" height="80" as="geometry" />
        </mxCell>
        <mxCell id="CQN8vnpKiC71kC9qJXYh-7" value="" style="image;html=1;image=img/lib/clip_art/computers/Server_Tower_128x128.png" vertex="1" parent="1">
          <mxGeometry x="450" y="440" width="80" height="80" as="geometry" />
        </mxCell>
        <mxCell id="CQN8vnpKiC71kC9qJXYh-8" value="" style="image;html=1;image=img/lib/clip_art/networking/Wireless_Router_128x128.png" vertex="1" parent="1">
          <mxGeometry x="220" y="180" width="80" height="80" as="geometry" />
        </mxCell>
        <mxCell id="CQN8vnpKiC71kC9qJXYh-9" value="" style="image;html=1;image=img/lib/clip_art/networking/Wireless_Router_128x128.png" vertex="1" parent="1">
          <mxGeometry x="380" y="180" width="80" height="80" as="geometry" />
        </mxCell>
        <mxCell id="CQN8vnpKiC71kC9qJXYh-10" value="" style="endArrow=none;dashed=1;html=1;rounded=0;exitX=1;exitY=0;exitDx=0;exitDy=0;entryX=0;entryY=1;entryDx=0;entryDy=0;" edge="1" parent="1" source="CQN8vnpKiC71kC9qJXYh-5" target="CQN8vnpKiC71kC9qJXYh-9">
          <mxGeometry width="50" height="50" relative="1" as="geometry">
            <mxPoint x="520" y="420" as="sourcePoint" />
            <mxPoint x="570" y="370" as="targetPoint" />
          </mxGeometry>
        </mxCell>
        <mxCell id="CQN8vnpKiC71kC9qJXYh-14" value="" style="endArrow=none;dashed=1;html=1;rounded=0;exitX=1;exitY=0;exitDx=0;exitDy=0;entryX=0;entryY=1;entryDx=0;entryDy=0;flowAnimation=0;" edge="1" parent="1" source="CQN8vnpKiC71kC9qJXYh-4" target="CQN8vnpKiC71kC9qJXYh-5">
          <mxGeometry width="50" height="50" relative="1" as="geometry">
            <mxPoint x="240" y="450" as="sourcePoint" />
            <mxPoint x="290" y="400" as="targetPoint" />
          </mxGeometry>
        </mxCell>
        <mxCell id="CQN8vnpKiC71kC9qJXYh-16" value="" style="image;points=[];aspect=fixed;html=1;align=center;shadow=0;dashed=0;image=img/lib/allied_telesis/computer_and_terminals/Server_Desktop.svg;" vertex="1" parent="1">
          <mxGeometry x="80" y="580" width="42.6" height="54" as="geometry" />
        </mxCell>
      </root>
    </mxGraphModel>
  </diagram>
</mxfile>
